<svg width="18" height="18" viewBox="0 0 18 18" fill="none" xmlns="http://www.w3.org/2000/svg">
<g clip-path="url(#clip0_24_414)">
<path d="M7.61544 1.13232C8.89306 1.13244 10.142 1.5114 11.2042 2.22129C12.2665 2.93118 13.0944 3.94012 13.5832 5.12052C14.0721 6.30093 14.1999 7.59979 13.9506 8.85285C13.7013 10.1059 13.086 11.2569 12.1825 12.1603C11.279 13.0637 10.128 13.6789 8.87493 13.9281C7.62184 14.1773 6.32299 14.0493 5.14263 13.5604C3.96226 13.0714 2.9534 12.2434 2.2436 11.1811C1.5338 10.1188 1.15495 8.86987 1.15495 7.59224C1.15705 5.87951 1.83841 4.23753 3.04955 3.0265C4.26068 1.81547 5.90271 1.13427 7.61544 1.13232ZM7.61544 0C6.11384 0 4.64596 0.445278 3.39742 1.27952C2.14888 2.11377 1.17577 3.29951 0.601128 4.68681C0.0264899 6.07411 -0.123871 7.60066 0.169077 9.0734C0.462025 10.5462 1.18512 11.899 2.24692 12.9608C3.30871 14.0226 4.66152 14.7456 6.13427 15.0386C7.60702 15.3315 9.13356 15.1812 10.5209 14.6065C11.9082 14.0319 13.0939 13.0588 13.9282 11.8103C14.7624 10.5617 15.2077 9.09384 15.2077 7.59224C15.2077 5.57865 14.4078 3.64753 12.984 2.22371C11.5601 0.799889 9.62903 0 7.61544 0Z" fill="#606060"/>
<path d="M17.4066 17.9999C17.2566 18 17.1126 17.9405 17.0064 17.8346L12.5558 13.3845C12.5017 13.3323 12.4586 13.2698 12.4289 13.2008C12.3992 13.1317 12.3836 13.0574 12.383 12.9822C12.3823 12.907 12.3966 12.8325 12.4251 12.7629C12.4535 12.6933 12.4956 12.6301 12.5488 12.577C12.6019 12.5238 12.6651 12.4818 12.7347 12.4533C12.8043 12.4248 12.8788 12.4105 12.954 12.4112C13.0292 12.4118 13.1035 12.4274 13.1726 12.4571C13.2416 12.4868 13.3041 12.5299 13.3563 12.584L17.8069 17.034C17.8861 17.1132 17.94 17.2141 17.9618 17.3239C17.9837 17.4337 17.9724 17.5475 17.9296 17.6509C17.8867 17.7544 17.8142 17.8428 17.7211 17.905C17.6281 17.9672 17.5186 17.9999 17.4066 17.9999Z" fill="#606060"/>
</g>
<defs>
<clipPath id="clip0_24_414">
<rect width="18" height="18" fill="white"/>
</clipPath>
</defs>
</svg>
