<svg width="12" height="14" viewBox="0 0 12 14" fill="none" xmlns="http://www.w3.org/2000/svg">
<path d="M3.31049 7.879H7.54199C7.64048 7.879 7.73801 7.8596 7.82901 7.82191C7.92 7.78422 8.00268 7.72897 8.07232 7.65933C8.14197 7.58969 8.19721 7.50701 8.2349 7.41601C8.27259 7.32502 8.29199 7.22749 8.29199 7.129C8.29199 7.03051 8.27259 6.93298 8.2349 6.84199C8.19721 6.75099 8.14197 6.66831 8.07232 6.59867C8.00268 6.52903 7.92 6.47378 7.82901 6.43609C7.73801 6.3984 7.64048 6.379 7.54199 6.379H3.31049L4.15199 5.5375C4.29262 5.39677 4.37159 5.20594 4.37152 5.00698C4.37145 4.80803 4.29235 4.61726 4.15162 4.47663C4.01089 4.33599 3.82006 4.25703 3.6211 4.2571C3.42215 4.25717 3.23137 4.33627 3.09074 4.477L0.969744 6.598C0.899742 6.6675 0.844185 6.75017 0.806272 6.84124C0.768359 6.93231 0.74884 7.02998 0.74884 7.12862C0.74884 7.22727 0.768359 7.32494 0.806272 7.41601C0.844185 7.50708 0.899742 7.58975 0.969744 7.65925L3.08999 9.78025C3.23062 9.92098 3.4214 10.0001 3.62035 10.0002C3.81931 10.0002 4.01014 9.92126 4.15087 9.78062C4.2916 9.63999 4.3707 9.44922 4.37077 9.25027C4.37084 9.05131 4.29187 8.86048 4.15124 8.71975L3.31049 7.879ZM10.5 13.75C10.6989 13.75 10.8897 13.671 11.0303 13.5303C11.171 13.3897 11.25 13.1989 11.25 13V1C11.25 0.801087 11.171 0.610322 11.0303 0.469669C10.8897 0.329017 10.6989 0.25 10.5 0.25C10.3011 0.25 10.1103 0.329017 9.96966 0.469669C9.82901 0.610322 9.74999 0.801087 9.74999 1V13C9.74999 13.1989 9.82901 13.3897 9.96966 13.5303C10.1103 13.671 10.3011 13.75 10.5 13.75Z" fill="white"/>
</svg>
