<svg width="25" height="19" viewBox="0 0 25 19" fill="none" xmlns="http://www.w3.org/2000/svg">
<path d="M11.4765 0.737438L0.212582 6.46395C0.149175 6.49615 0.0954225 6.54797 0.0577313 6.61322C0.0200401 6.67848 0 6.75443 0 6.83202C0 6.9096 0.0200401 6.98555 0.0577313 7.05081C0.0954225 7.11607 0.149175 7.16789 0.212582 7.20008L11.4765 12.9266C11.6447 13.0122 11.8275 13.0565 12.0125 13.0565C12.1974 13.0565 12.3802 13.0122 12.5484 12.9266L23.8124 7.20008C23.8758 7.16789 23.9296 7.11607 23.9672 7.05081C24.0049 6.98555 24.025 6.9096 24.025 6.83202C24.025 6.75443 24.0049 6.67848 23.9672 6.61322C23.9296 6.54797 23.8758 6.49615 23.8124 6.46395L12.5484 0.737438C12.3802 0.65208 12.1974 0.60791 12.0125 0.60791C11.8276 0.60791 11.6448 0.65208 11.4765 0.737438Z" fill="#B1B1B1"/>
<path d="M13.0931 13.504C12.754 13.6762 12.3855 13.7654 12.0127 13.7654C11.6399 13.7654 11.2715 13.6762 10.9323 13.504L3.89465 9.92627V15.3378C3.89465 17.3606 7.50369 19 11.9519 19C16.4002 19 20.0096 17.3606 20.0096 15.3378V9.98861L13.0931 13.504Z" fill="#B1B1B1"/>
</svg>
