<svg width="18" height="20" viewBox="0 0 18 20" fill="none" xmlns="http://www.w3.org/2000/svg">
<path d="M12.2123 19.1779H16.8574C17.3382 19.1779 17.7271 18.7585 17.7253 18.2419L17.6945 9.27348C17.6933 8.9291 17.4967 8.46504 17.2562 8.23785L9.67297 1.07879C9.31174 0.737854 8.72452 0.736604 8.36184 1.07598L0.710288 8.23973C0.468596 8.46598 0.273439 8.9291 0.274602 9.27348L0.305432 18.2419C0.307177 18.7585 0.698945 19.1779 1.17971 19.1779H5.82509C6.30586 19.1779 6.69588 18.7585 6.69588 18.2419V14.1866C6.69588 13.8422 6.95619 13.5629 7.2767 13.5629H10.7607C11.081 13.5629 11.3413 13.8422 11.3413 14.1866V18.2419C11.3413 18.7585 11.7316 19.1779 12.2123 19.1779Z" fill="white"/>
</svg>
