<svg width="20" height="19" viewBox="0 0 20 19" fill="none" xmlns="http://www.w3.org/2000/svg">
<path d="M16 1.9V0H4V1.9C2.93913 1.9 1.92172 2.30036 1.17157 3.01299C0.421427 3.72563 0 4.69218 0 5.7C0 6.70782 0.421427 7.67437 1.17157 8.38701C1.92172 9.09964 2.93913 9.5 4 9.5H4.38C4.68655 10.2876 5.16737 11.0035 5.79 11.5995C6.53868 12.3013 6.97232 13.2512 7 14.25H4V17.1H3V19H17V17.1H16V14.25H13C13.025 13.2525 13.455 12.3028 14.2 11.5995C14.8262 11.0044 15.3105 10.2884 15.62 9.5H16C17.0609 9.5 18.0783 9.09964 18.8284 8.38701C19.5786 7.67437 20 6.70782 20 5.7C20 4.69218 19.5786 3.72563 18.8284 3.01299C18.0783 2.30036 17.0609 1.9 16 1.9ZM4 7.6C3.46957 7.6 2.96086 7.39982 2.58579 7.0435C2.21071 6.68718 2 6.20391 2 5.7C2 5.19609 2.21071 4.71282 2.58579 4.3565C2.96086 4.00018 3.46957 3.8 4 3.8V7.6ZM8 3.8H12V5.7H8V3.8ZM14 16.15V17.1H6V16.15H14ZM16 7.6V3.8C16.5304 3.8 17.0391 4.00018 17.4142 4.3565C17.7893 4.71282 18 5.19609 18 5.7C18 6.20391 17.7893 6.68718 17.4142 7.0435C17.0391 7.39982 16.5304 7.6 16 7.6Z" fill="#B1B1B1"/>
</svg>
